<svg xmlns="http://www.w3.org/2000/svg" viewBox="0 0 200 60" fill="none">
  <circle cx="28" cy="30" r="22" fill="#C9A96E" opacity="0.15"/>
  <path d="M18 24c0-5.5 4.5-10 10-10s10 4.5 10 10v4c0 1.1-.9 2-2 2h-2c0 3.3-2.7 6-6 6s-6-2.7-6-6h-2c-1.1 0-2-.9-2-2v-4z" fill="#C9A96E"/>
  <path d="M38 25c1.7 0 3 1.3 3 3v1c0 1.7-1.3 3-3 3" stroke="#C9A96E" stroke-width="2" stroke-linecap="round"/>
  <path d="M22 18c1-2 3.5-3 6-3s5 1 6 3" stroke="#2A1F17" stroke-width="1.5" stroke-linecap="round" opacity="0.3"/>
  <text x="56" y="36" font-family="Georgia, serif" font-weight="bold" font-size="24" fill="#2A1F17">Ruang Rumi</text>
</svg>
